<svg width="130" height="130" viewBox="0 0 130 130" fill="none" xmlns="http://www.w3.org/2000/svg">
<g id="sims">
<path id="Vector 1" d="M59.5 0.5V19.5H40V20.5H40.0107C40.0189 20.5001 40.0317 20.5007 40.0488 20.501C40.0839 20.5015 40.1377 20.5025 40.208 20.5049C40.3486 20.5096 40.5576 20.519 40.8242 20.5381C41.3578 20.5762 42.1233 20.6524 43.043 20.8057C44.8852 21.1127 47.3338 21.726 49.7764 22.9473C52.2171 24.1676 54.6426 25.9902 56.459 28.7148C58.2733 31.4363 59.5 35.0875 59.5 40C59.5 44.9125 58.2733 48.5637 56.459 51.2852C54.6426 54.0098 52.2171 55.8324 49.7764 57.0527C47.3338 58.274 44.8852 58.8873 43.043 59.1943C42.1233 59.3476 41.3578 59.4238 40.8242 59.4619C40.5576 59.481 40.3486 59.4904 40.208 59.4951C40.1377 59.4975 40.0839 59.4985 40.0488 59.499C40.0317 59.4993 40.0189 59.4999 40.0107 59.5H0.5V40.5H20V39.5H19.9893C19.9811 39.4999 19.9683 39.4993 19.9512 39.499C19.9161 39.4985 19.8623 39.4975 19.792 39.4951C19.6514 39.4904 19.4424 39.481 19.1758 39.4619C18.6422 39.4238 17.8767 39.3476 16.957 39.1943C15.1148 38.8873 12.6662 38.274 10.2236 37.0527C7.78295 35.8324 5.35744 34.0098 3.54102 31.2852C1.72668 28.5637 0.5 24.9125 0.5 20C0.5 15.0875 1.72668 11.4363 3.54102 8.71484C5.35744 5.99021 7.78295 4.16761 10.2236 2.94727C12.6662 1.72598 15.1148 1.11272 16.957 0.805664C17.8767 0.652387 18.6422 0.576211 19.1758 0.538086C19.4424 0.519038 19.6514 0.50957 19.792 0.504883C19.8623 0.50254 19.9161 0.501542 19.9512 0.500977C19.9683 0.500701 19.9811 0.500066 19.9893 0.5H59.5Z" fill="currentColor" stroke="currentColor"/>
<path id="Vector 4" d="M129.5 70.5V89.5H110V90.5H110.011C110.019 90.5001 110.032 90.5007 110.049 90.501C110.084 90.5015 110.138 90.5025 110.208 90.5049C110.349 90.5096 110.558 90.519 110.824 90.5381C111.358 90.5762 112.123 90.6524 113.043 90.8057C114.885 91.1127 117.334 91.726 119.776 92.9473C122.217 94.1676 124.643 95.9902 126.459 98.7148C128.273 101.436 129.5 105.087 129.5 110C129.5 114.913 128.273 118.564 126.459 121.285C124.643 124.01 122.217 125.832 119.776 127.053C117.334 128.274 114.885 128.887 113.043 129.194C112.123 129.348 111.358 129.424 110.824 129.462C110.558 129.481 110.349 129.49 110.208 129.495C110.138 129.497 110.084 129.498 110.049 129.499C110.032 129.499 110.019 129.5 110.011 129.5H70.5V110.5H90V109.5H89.9893C89.9811 109.5 89.9683 109.499 89.9512 109.499C89.9161 109.498 89.8623 109.497 89.792 109.495C89.6514 109.49 89.4424 109.481 89.1758 109.462C88.6422 109.424 87.8767 109.348 86.957 109.194C85.1148 108.887 82.6662 108.274 80.2236 107.053C77.7829 105.832 75.3574 104.01 73.541 101.285C71.7267 98.5637 70.5 94.9125 70.5 90C70.5 85.0875 71.7267 81.4363 73.541 78.7148C75.3574 75.9902 77.7829 74.1676 80.2236 72.9473C82.6662 71.726 85.1148 71.1127 86.957 70.8057C87.8767 70.6524 88.6422 70.5762 89.1758 70.5381C89.4424 70.519 89.6514 70.5096 89.792 70.5049C89.8623 70.5025 89.9161 70.5015 89.9512 70.501C89.9683 70.5007 89.9811 70.5001 89.9893 70.5H129.5Z" fill="currentColor" stroke="currentColor"/>
<path id="Vector 2" d="M129.5 0.5V19.5H120V20C120 19.5 119.999 19.5 119.999 19.5H119.963C119.941 19.5004 119.91 19.5016 119.871 19.5029C119.792 19.5056 119.678 19.5103 119.535 19.5205C119.248 19.541 118.842 19.5821 118.355 19.6631C117.385 19.8248 116.084 20.1491 114.776 20.8027C113.467 21.4574 112.143 22.4473 111.146 23.9414C110.148 25.4387 109.5 27.4125 109.5 30C109.5 32.5875 110.148 34.5613 111.146 36.0586C112.143 37.5527 113.467 38.5426 114.776 39.1973C116.084 39.8509 117.385 40.1752 118.355 40.3369C118.842 40.4179 119.248 40.459 119.535 40.4795C119.678 40.4897 119.792 40.4944 119.871 40.4971C119.91 40.4984 119.941 40.4996 119.963 40.5H119.999L120 40V40.5H129.5V59.5H70.5V40.5H80V40C80 40.5 80.0007 40.5 80.001 40.5H80.0371C80.0588 40.4996 80.0896 40.4984 80.1289 40.4971C80.208 40.4944 80.3216 40.4897 80.4648 40.4795C80.7515 40.459 81.1583 40.4179 81.6445 40.3369C82.6148 40.1752 83.9163 39.8509 85.2236 39.1973C86.5329 38.5426 87.8574 37.5527 88.8535 36.0586C89.8517 34.5613 90.5 32.5875 90.5 30C90.5 27.4125 89.8517 25.4387 88.8535 23.9414C87.8574 22.4473 86.5329 21.4574 85.2236 20.8027C83.9163 20.1491 82.6148 19.8248 81.6445 19.6631C81.1583 19.5821 80.7515 19.541 80.4648 19.5205C80.3216 19.5103 80.208 19.5056 80.1289 19.5029C80.0896 19.5016 80.0588 19.5004 80.0371 19.5H80.001L80 20C80 19.5293 79.9997 19.5016 80 19.5H70.5V0.5H129.5Z" fill="currentColor" stroke="currentColor"/>
<path id="Vector 3" d="M19.6914 70.5L29.5527 90.2236L30 91.1182L30.4473 90.2236L40.3086 70.5H59.5V129.5H40.5V110L39.5527 109.776L30 128.882L20.4473 109.776L19.5 110V129.5H0.5V70.5H19.6914Z" fill="currentColor" stroke="currentColor"/>
</g>
</svg>
